<svg xmlns="http://www.w3.org/2000/svg" viewBox="0 0 512 512" width="512" height="512">
  <defs>
    <linearGradient id="bg" x1="0" y1="0" x2="1" y2="1">
      <stop offset="0" stop-color="#B79CF5"/>
      <stop offset="1" stop-color="#9A78EE"/>
    </linearGradient>
    <radialGradient id="glow" cx="0.32" cy="0.24" r="0.8">
      <stop offset="0" stop-color="#fff" stop-opacity="0.28"/>
      <stop offset="1" stop-color="#fff" stop-opacity="0"/>
    </radialGradient>
    <clipPath id="liq"><path d="M224 156 L224 222 L146 378 Q136 402 168 402 L344 402 Q376 402 366 378 L288 222 L288 156 Z"/></clipPath>
  </defs>

  <rect width="512" height="512" fill="url(#bg)"/>
  <rect width="512" height="512" fill="url(#glow)"/>

  <!-- flask body -->
  <path d="M224 156 L224 222 L146 378 Q136 402 168 402 L344 402 Q376 402 366 378 L288 222 L288 156 Z" fill="#FFFDF9"/>
  <g clip-path="url(#liq)">
    <rect x="120" y="300" width="272" height="120" fill="#FF6FB5"/>
    <rect x="120" y="300" width="272" height="14" fill="#FF8AC2"/>
    <circle cx="190" cy="372" r="12" fill="#fff" opacity=".45"/>
    <circle cx="328" cy="356" r="8" fill="#fff" opacity=".4"/>
    <circle cx="300" cy="386" r="6" fill="#fff" opacity=".4"/>
  </g>

  <!-- marshmallow -->
  <rect x="206" y="240" width="100" height="104" rx="38" fill="#FFFDF9" stroke="#40304F" stroke-width="6"/>
  <rect x="224" y="252" width="42" height="12" rx="6" fill="#fff" opacity=".6"/>
  <circle cx="224" cy="300" r="13" fill="#FF9CC9" opacity=".85"/>
  <circle cx="288" cy="300" r="13" fill="#FF9CC9" opacity=".85"/>
  <circle cx="236" cy="286" r="8.5" fill="#40304F"/>
  <circle cx="276" cy="286" r="8.5" fill="#40304F"/>
  <circle cx="232.8" cy="282.5" r="2.8" fill="#fff"/>
  <circle cx="272.8" cy="282.5" r="2.8" fill="#fff"/>
  <path d="M240 305 Q256 321 272 305" stroke="#40304F" stroke-width="7.5" fill="none" stroke-linecap="round"/>

  <!-- flask outline + lip -->
  <path d="M224 156 L224 222 L146 378 Q136 402 168 402 L344 402 Q376 402 366 378 L288 222 L288 156" fill="none" stroke="#40304F" stroke-width="12" stroke-linejoin="round" stroke-linecap="round"/>
  <rect x="210" y="128" width="92" height="28" rx="14" fill="#40304F"/>

  <!-- rising bubbles -->
  <circle cx="270" cy="104" r="9" fill="#fff" stroke="#40304F" stroke-width="3"/>
  <circle cx="292" cy="83" r="6" fill="#fff" stroke="#40304F" stroke-width="3"/>
</svg>
